{"accessors" : [{"bufferView" : 0, "byteOffset" : 0, "componentType" : 5123, "count" : 6048, "type" : "SCALAR", "max" : [1074], "min" : [0]}, {"bufferView" : 1, "byteOffset" : 0, "componentType" : 5126, "count" : 1075, "type" : "VEC3", "max" : [2.9433979988098145, 2.9351680278778076, 2.9433979988098145], "min" : [-2.9433979988098145, -2.9351680278778076, 1.0566020011901855], "name" : "POSITION"}, {"bufferView" : 1, "byteOffset" : 12, "componentType" : 5126, "count" : 1075, "type" : "VEC2", "max" : [2.963773012161255, 10.246957778930664], "min" : [-2.963773012161255, -8.246957778930664], "name" : "TEXCOORD_0"}, {"bufferView" : 1, "byteOffset" : 20, "componentType" : 5126, "count" : 1075, "type" : "VEC3", "max" : [1.0000044107437134, 0.9972082376480103, 1.0000044107437134], "min" : [-1.0000044107437134, -0.9972082376480103, -1.0000044107437134], "name" : "NORMAL"}], "asset" : {"generator" : "Aspose.3D 24.2.0", "version" : "2.0"}, "buffers" : [{"uri" : "buffer.bin", "byteLength" : 46504}], "bufferViews" : [{"buffer" : 0, "byteOffset" : 0, "byteLength" : 12096, "target" : 34963}, {"buffer" : 0, "byteOffset" : 12100, "byteLength" : 34400, "byteStride" : 32, "target" : 34962}], "meshes" : [{"primitives" : [{"attributes" : {"POSITION" : 1, "TEXCOORD_0" : 2, "NORMAL" : 3}, "indices" : 0, "mode" : 4}], "name" : ""}], "nodes" : [{"mesh" : 0, "name" : "Corps1"}], "scene" : 0, "scenes" : [{"nodes" : [0]}]}